<svg width="16" height="16" viewBox="0 0 16 16" xmlns="http://www.w3.org/2000/svg">
  <path fill="#B99BF8" fill-rule="evenodd" d="M8 1.5c3.31 0 6 1.08 6 2.4v8.2c0 1.32-2.69 2.4-6 2.4s-6-1.08-6-2.4V3.9c0-1.32 2.69-2.4 6-2.4Zm4.7 7.25c-1.1.57-2.82.9-4.7.9s-3.6-.33-4.7-.9v1.48c.35.43 2.06 1.02 4.7 1.02s4.35-.59 4.7-1.02V8.75ZM8 2.8c-2.66 0-4.38.6-4.7 1.03.32.43 2.04 1.02 4.7 1.02s4.38-.59 4.7-1.02C12.38 3.4 10.66 2.8 8 2.8Zm4.7 2.9c-1.1.57-2.82.9-4.7.9s-3.6-.33-4.7-.9v1.18c.35.43 2.06 1.02 4.7 1.02s4.35-.59 4.7-1.02V5.7Zm0 6.4c-1.1.57-2.82.9-4.7.9s-3.6-.33-4.7-.9c.35.43 2.06 1.1 4.7 1.1s4.35-.67 4.7-1.1Z"/>
</svg>
