<svg width="16" height="16" viewBox="0 0 16 16" xmlns="http://www.w3.org/2000/svg">
  <path fill="#6C707E" fill-rule="evenodd" d="m9.1 1 .35 1.45c.43.15.83.38 1.18.68l1.42-.43 1.1 1.9-1.08 1.02c.04.22.06.45.06.68 0 .23-.02.46-.06.68l1.08 1.02-1.1 1.9-1.42-.43c-.35.3-.75.53-1.18.68L9.1 11.6H6.9l-.35-1.45a4.1 4.1 0 0 1-1.18-.68l-1.42.43-1.1-1.9 1.08-1.02a3.8 3.8 0 0 1 0-1.36L2.85 4.6l1.1-1.9 1.42.43c.35-.3.75-.53 1.18-.68L6.9 1h2.2ZM8 4.15a2.15 2.15 0 1 0 0 4.3 2.15 2.15 0 0 0 0-4.3Z" transform="translate(0 1.7)"/>
</svg>
